<svg xmlns="http://www.w3.org/2000/svg" version="1.1" xmlns:xlink="http://www.w3.org/1999/xlink" xmlns:svgjs="http://svgjs.dev/svgjs" width="3840" height="2160" preserveAspectRatio="none" viewBox="0 0 3840 2160"><g mask="url(&quot;#SvgjsMask1006&quot;)" fill="none"><rect width="3840" height="2160" x="0" y="0" fill="#1e3266"></rect><path d="M3904 2160L0 2160 L0 1262.56Q-98.13 972.42, 192 874.29Q420.91 783.2, 512 1012.11Q684.46 864.57, 832 1037.02Q937.83 950.85, 1024 1056.67Q1254.62 967.29, 1344 1197.9Q1450.36 984.26, 1664 1090.62Q1691.53 926.14, 1856 953.67Q1915.1 820.76, 2048 879.86Q2153.47 793.34, 2240 898.81Q2341.49 808.3, 2432 909.79Q2640.12 925.9, 2624 1134.02Q2740.99 1059.01, 2816 1176Q2817.93 985.93, 3008 987.86Q3124.61 784.47, 3328 901.07Q3444.84 825.91, 3520 942.76Q3635.79 866.55, 3712 982.34Q3863.88 942.22, 3904 1094.1z" fill="#182f5d"></path><path d="M3904 2160L0 2160 L0 1482.38Q74.38 1236.76, 320 1311.13Q426.46 1225.59, 512 1332.05Q730.02 1358.07, 704 1576.08Q610.93 1291.01, 896 1197.94Q1125.79 1107.73, 1216 1337.52Q1419.11 1220.63, 1536 1423.73Q1773.69 1341.42, 1856 1579.12Q1864.45 1395.57, 2048 1404.03Q2228.1 1264.13, 2368 1444.22Q2384.18 1268.4, 2560 1284.58Q2689.91 1094.49, 2880 1224.4Q3120.91 1145.31, 3200 1386.22Q3303.84 1170.06, 3520 1273.9Q3630.24 1192.14, 3712 1302.39Q3884.99 1283.38, 3904 1456.37z" fill="#25467d"></path><path d="M4032 2160L0 2160 L0 1682.34Q5.17 1495.51, 192 1500.68Q357.98 1346.66, 512 1512.64Q748.35 1428.99, 832 1665.34Q997.11 1638.45, 1024 1803.56Q1121.99 1581.55, 1344 1679.55Q1464 1607.55, 1536 1727.56Q1714.43 1585.99, 1856 1764.43Q1946.38 1662.82, 2048 1753.2Q2193.31 1578.51, 2368 1723.81Q2389.16 1552.97, 2560 1574.14Q2742.86 1437, 2880 1619.86Q3086.77 1506.63, 3200 1713.39Q3378.81 1572.2, 3520 1751.01Q3726.6 1637.61, 3840 1844.21Q3878.09 1690.3, 4032 1728.38z" fill="#356cb1"></path><path d="M3968 2160L0 2160 L0 2016.79Q160.94 1985.73, 192 2146.67Q252.7 1887.38, 512 1948.08Q721.22 1837.3, 832 2046.51Q999.98 2022.49, 1024 2190.46Q1075.11 2049.57, 1216 2100.68Q1314.36 1879.03, 1536 1977.39Q1673.89 1795.29, 1856 1933.18Q1902.98 1788.16, 2048 1835.13Q2162.91 1758.05, 2240 1872.96Q2360.36 1801.32, 2432 1921.67Q2680.43 1978.1, 2624 2226.52Q2589.51 1872.03, 2944 1837.54Q3066.81 1768.35, 3136 1891.16Q3366.77 1801.93, 3456 2032.7Q3668.75 2053.45, 3648 2266.2Q3618.26 1916.46, 3968 1886.72z" fill="white"></path></g><defs><mask id="SvgjsMask1006"><rect width="3840" height="2160" fill="#ffffff"></rect></mask></defs></svg>